# xmcd
#
# Track frame offsets: 
#        150
#        15559
#        34425
#        51280
#
# Disc length: 995 seconds
#
# Revision: 0
# Processed by: cddbd v1.5.2PL0 Copyright (c) Steve Scherf et al.
# Submitted via: ExactAudioCopyFreeDBPlugin 1.0
#
DISCID=2e03e104
DTITLE=The Cloud - C'mon honey and dance
DYEAR=2004
DGENRE=Alt. Rock
TTITLE0=Speaking out
TTITLE1=Gone tomorrow
TTITLE2=She's that kind of girl
TTITLE3=Believe
EXTD=
EXTT0=
EXTT1=
EXTT2=
EXTT3=
PLAYORDER=
